<?xml version="1.0" encoding="utf-8"?>
<!-- Generator: Adobe Illustrator 19.1.0, SVG Export Plug-In . SVG Version: 6.00 Build 0)  -->
<svg version="1.1" xmlns="http://www.w3.org/2000/svg" xmlns:xlink="http://www.w3.org/1999/xlink" x="0px" y="0px"
	 viewBox="0 0 2000 2000" style="enable-background:new 0 0 2000 2000;" xml:space="preserve">
<style type="text/css">
	.st0{display:none;}
	.st1{display:inline;fill:#ED1C24;stroke:#FFFFFF;stroke-width:5.2449;stroke-miterlimit:10;}
	.st2{display:inline;}
	.st3{opacity:0.39;}
	.st4{display:inline;fill:#FFFFFF;}
	.st5{display:inline;fill:none;stroke:#FFFFFF;stroke-width:9;stroke-miterlimit:10;}
	.st6{display:inline;fill:#FFFFFF;stroke:#FFFFFF;stroke-width:6.5492;stroke-miterlimit:10;}
	.st7{display:inline;fill:none;stroke:#FFFFFF;stroke-width:11;stroke-miterlimit:10;}
	.st8{fill:#FFFFFF;stroke:#FFFFFF;stroke-width:6.5492;stroke-miterlimit:10;}
	.st9{display:inline;fill:#FFFFFF;stroke:#FFFFFF;stroke-width:5.2449;stroke-miterlimit:10;}
	.st10{display:none;fill:none;stroke:#FFFFFF;stroke-width:11;stroke-miterlimit:10;}
	.st11{display:none;fill:#FFFFFF;stroke:#FFFFFF;stroke-width:5.2449;stroke-miterlimit:10;}
	.st12{display:none;fill:#FFFFFF;}
	.st13{display:none;fill:#FFFFFF;stroke:#FFFFFF;stroke-width:6.5492;stroke-miterlimit:10;}
	.st14{fill:none;}
	.st15{font-family:'TypoGraphica';}
	.st16{font-size:130px;}
</style>
<g id="Layer_4" class="st0">
	<rect class="st1" width="2000" height="2000"/>
</g>
<g id="Layer_1" class="st0">
	<g class="st2">
		<path d="M784.5,928.7c28.6-19.5,55.4-39.3,83.8-56.3c11.2-6.7,26.1-7.3,42-11.4c-7.7-2.1-12.8-3.4-19-5.1
			c8.6-12.9,17-25.5,25.4-38.1c-0.4-0.6-0.9-1.1-1.3-1.7c-8.7,7.6-17,15.7-26.3,22.5c-3.3,2.4-9.5,3.9-13.1,2.5
			c-79.1-31.7-157.9-63.8-236.8-95.8c-1.4-0.6-2.7-1.4-5.7-3.1c31.6-5.8,61.4-11.4,91.2-16.9c20.7-3.8,41.5-7.5,62.2-11.4
			c8.4-1.6,15.3-0.2,22.9,4.6c42,26.2,84.4,51.7,128.2,75.9c-5.8-5.4-11.5-10.9-17.6-16.6c30.4-12.6,59.8-11.7,89.3-0.7
			c-5.6,5.8-11.1,11.6-16.7,17.4c0.3,0.5,0.6,1,0.9,1.5c11.8-7.1,23.7-14.1,35.4-21.3c30.3-18.6,60.4-37.5,91-55.7
			c5.7-3.4,13.4-6.4,19.5-5.3c50.8,8.7,101.5,18.3,152.2,27.7c1,0.2,2,0.7,4.6,1.6c-30.4,12.5-59.6,24.5-88.8,36.4
			c-49.6,20.2-99.3,40.2-148.7,60.7c-8.3,3.4-14,3.3-20.5-3.7c-7.1-7.7-15.7-14-25.1-20c8.5,12.9,17,25.7,26,39.3
			c-6.2,1.7-11.5,3.1-17.2,4.6c1.1,0.8,1.7,1.7,2.4,1.7c37.2,3.2,63.7,27.7,92.8,47c9.4,6.2,18.6,12.8,29.8,20.5
			c-25.9,6.5-49.6,12.5-73.3,18.4c-34.1,8.4-68.3,16.7-102.4,25c-3.3,0.8-7,1.6-10.2,0.8c-57.3-14-114.5-28.2-171.7-42.5
			C788.5,931.1,787.5,930.3,784.5,928.7z"/>
		<path d="M1415.8,598.5c-36.3,44.6-72.4,89.2-109,133.6c-2.1,2.6-7.5,4.7-10.6,4c-45.2-9.9-90.2-20.3-135.7-32.7
			c14.7-4.4,29.3-9,44.1-13.3c35.6-10.4,71-21.4,106.8-30.8c20.6-5.4,37.6-16.5,54.5-28.4c16.2-11.4,32.4-22.7,48.6-34.1
			C1415,597.4,1415.4,598,1415.8,598.5z"/>
		<path d="M771.5,705.1c-46,10.5-90.8,20.8-135.6,30.6c-3.6,0.8-9.5-0.8-11.7-3.4c-36.8-44.6-73.2-89.6-108.6-135.9
			c20.8,14.5,42.3,28.2,62.3,43.9c17.7,13.9,38.9,17.5,59.2,23.7c42.9,12.9,86.1,25.2,129.1,37.8
			C767.8,702.2,769.2,703.6,771.5,705.1z"/>
		<path d="M588.7,631.2c-26.2-14.1-49.9-26.6-73.4-39.7c-2.3-1.3-4.6-5.6-4.2-8c6-38.9,12.5-77.7,21-117
			C550.6,520.4,569.1,574.3,588.7,631.2z"/>
		<path d="M1342.3,631c19.3-56.2,37.7-109.9,56.1-163.7c0.8,0,1.6,0,2.3,0c2.7,15.8,5.6,31.5,8.1,47.3c3.6,22.4,7.2,44.8,10.1,67.3
			c0.4,3.3-2.1,8.9-4.9,10.5C1391.3,605.2,1368.1,617.3,1342.3,631z"/>
		<path d="M947.6,978.7c12.5,0,23.7,0,35.6,0c-5.5,8.6-11.2,17.6-17.6,27.7C959.1,996.4,953.4,987.6,947.6,978.7z"/>
	</g>
	<g class="st3">
		<path class="st2" d="M785.1,1093.1c28.6,19.5,55.4,39.3,83.8,56.3c11.2,6.7,26.1,7.3,42,11.4c-7.7,2.1-12.8,3.4-19,5.1
			c8.6,12.9,17,25.5,25.4,38.1c-0.4,0.6-0.9,1.1-1.3,1.7c-8.7-7.6-17-15.7-26.3-22.5c-3.3-2.4-9.5-3.9-13.1-2.5
			c-79.1,31.7-157.9,63.8-236.8,95.8c-1.4,0.6-2.7,1.4-5.7,3.1c31.6,5.8,61.4,11.4,91.2,16.9c20.7,3.8,41.5,7.5,62.2,11.4
			c8.4,1.6,15.3,0.2,22.9-4.6c42-26.2,84.4-51.7,128.2-75.9c-5.8,5.4-11.5,10.9-17.6,16.6c30.4,12.6,59.8,11.7,89.3,0.7
			c-5.6-5.8-11.1-11.6-16.7-17.4c0.3-0.5,0.6-1,0.9-1.5c11.8,7.1,23.7,14.1,35.4,21.3c30.3,18.6,60.4,37.5,91,55.7
			c5.7,3.4,13.4,6.4,19.5,5.3c50.8-8.7,101.5-18.3,152.2-27.7c1-0.2,2-0.7,4.6-1.6c-30.4-12.5-59.6-24.5-88.8-36.4
			c-49.6-20.2-99.3-40.2-148.7-60.7c-8.3-3.4-14-3.3-20.5,3.7c-7.1,7.7-15.7,14-25.1,20c8.5-12.9,17-25.7,26-39.3
			c-6.2-1.7-11.5-3.1-17.2-4.6c1.1-0.8,1.7-1.7,2.4-1.7c37.2-3.2,63.7-27.7,92.8-47c9.4-6.2,18.6-12.8,29.8-20.5
			c-25.9-6.5-49.6-12.5-73.3-18.4c-34.1-8.4-68.3-16.7-102.4-25c-3.3-0.8-7-1.6-10.2-0.8c-57.3,14-114.5,28.2-171.7,42.5
			C789.1,1090.7,788.1,1091.5,785.1,1093.1z"/>
		<path class="st2" d="M1416.4,1423.2c-36.3-44.6-72.4-89.2-109-133.6c-2.1-2.6-7.5-4.7-10.6-4c-45.2,9.9-90.2,20.3-135.7,32.7
			c14.7,4.4,29.3,9,44.1,13.3c35.6,10.4,71,21.4,106.8,30.8c20.6,5.4,37.6,16.5,54.5,28.4c16.2,11.4,32.4,22.7,48.6,34.1
			C1415.6,1424.4,1416,1423.8,1416.4,1423.2z"/>
		<path class="st2" d="M772.1,1316.6c-46-10.5-90.8-20.8-135.6-30.6c-3.6-0.8-9.5,0.8-11.7,3.4c-36.8,44.6-73.2,89.6-108.6,135.9
			c20.8-14.5,42.3-28.2,62.3-43.9c17.7-13.9,38.9-17.5,59.2-23.7c42.9-12.9,86.1-25.2,129.1-37.8
			C768.4,1319.5,769.8,1318.2,772.1,1316.6z"/>
		<path class="st2" d="M589.3,1390.5c-26.2,14.1-49.9,26.6-73.4,39.7c-2.3,1.3-4.6,5.6-4.2,8c6,38.9,12.5,77.7,21,117
			C551.2,1501.4,569.7,1447.5,589.3,1390.5z"/>
		<path class="st2" d="M1342.9,1390.8c19.3,56.2,37.7,109.9,56.1,163.7c0.8,0,1.6,0,2.3,0c2.7-15.8,5.6-31.5,8.1-47.3
			c3.6-22.4,7.2-44.8,10.1-67.3c0.4-3.3-2.1-8.9-4.9-10.5C1391.9,1416.6,1368.7,1404.5,1342.9,1390.8z"/>
		<path class="st2" d="M948.2,1043c12.5,0,23.7,0,35.6,0c-5.5-8.6-11.2-17.6-17.6-27.7C959.6,1025.4,954,1034.1,948.2,1043z"/>
	</g>
	<path class="st4" d="M1021,1160.3c0.5-2.4,1.1-4.8,1.6-7.2c0.9,0.5,2.3,0.7,2.7,1.4c1.3,2.8,0.3,5-2.2,6.4
		C1022.4,1160.7,1021.7,1160.5,1021,1160.3z"/>
	<circle class="st5" cx="965.1" cy="1000" r="94.6"/>
	<circle class="st6" cx="966" cy="964.7" r="27.7"/>
</g>
<g id="Layer_1_copy" class="st0">
	<g class="st2">
		<path d="M784.5,928.7c28.6-19.5,55.4-39.3,83.8-56.3c11.2-6.7,26.1-7.3,42-11.4c-7.7-2.1-12.8-3.4-19-5.1
			c8.6-12.9,17-25.5,25.4-38.1c-0.4-0.6-0.9-1.1-1.3-1.7c-8.7,7.6-17,15.7-26.3,22.5c-3.3,2.4-9.5,3.9-13.1,2.5
			c-79.1-31.7-157.9-63.8-236.8-95.8c-1.4-0.6-2.7-1.4-5.7-3.1c31.6-5.8,61.4-11.4,91.2-16.9c20.7-3.8,41.5-7.5,62.2-11.4
			c8.4-1.6,15.3-0.2,22.9,4.6c42,26.2,84.4,51.7,128.2,75.9c-5.8-5.4-11.5-10.9-17.6-16.6c30.4-12.6,59.8-11.7,89.3-0.7
			c-5.6,5.8-11.1,11.6-16.7,17.4c0.3,0.5,0.6,1,0.9,1.5c11.8-7.1,23.7-14.1,35.4-21.3c30.3-18.6,60.4-37.5,91-55.7
			c5.7-3.4,13.4-6.4,19.5-5.3c50.8,8.7,101.5,18.3,152.2,27.7c1,0.2,2,0.7,4.6,1.6c-30.4,12.5-59.6,24.5-88.8,36.4
			c-49.6,20.2-99.3,40.2-148.7,60.7c-8.3,3.4-14,3.3-20.5-3.7c-7.1-7.7-15.7-14-25.1-20c8.5,12.9,17,25.7,26,39.3
			c-6.2,1.7-11.5,3.1-17.2,4.6c1.1,0.8,1.7,1.7,2.4,1.7c37.2,3.2,63.7,27.7,92.8,47c9.4,6.2,18.6,12.8,29.8,20.5
			c-25.9,6.5-49.6,12.5-73.3,18.4c-34.1,8.4-68.3,16.7-102.4,25c-3.3,0.8-7,1.6-10.2,0.8c-57.3-14-114.5-28.2-171.7-42.5
			C788.5,931.1,787.5,930.3,784.5,928.7z"/>
		<path d="M1415.8,598.5c-36.3,44.6-72.4,89.2-109,133.6c-2.1,2.6-7.5,4.7-10.6,4c-45.2-9.9-90.2-20.3-135.7-32.7
			c14.7-4.4,29.3-9,44.1-13.3c35.6-10.4,71-21.4,106.8-30.8c20.6-5.4,37.6-16.5,54.5-28.4c16.2-11.4,32.4-22.7,48.6-34.1
			C1415,597.4,1415.4,598,1415.8,598.5z"/>
		<path d="M771.5,705.1c-46,10.5-90.8,20.8-135.6,30.6c-3.6,0.8-9.5-0.8-11.7-3.4c-36.8-44.6-73.2-89.6-108.6-135.9
			c20.8,14.5,42.3,28.2,62.3,43.9c17.7,13.9,38.9,17.5,59.2,23.7c42.9,12.9,86.1,25.2,129.1,37.8
			C767.8,702.2,769.2,703.6,771.5,705.1z"/>
		<path d="M588.7,631.2c-26.2-14.1-49.9-26.6-73.4-39.7c-2.3-1.3-4.6-5.6-4.2-8c6-38.9,12.5-77.7,21-117
			C550.6,520.4,569.1,574.3,588.7,631.2z"/>
		<path d="M1342.3,631c19.3-56.2,37.7-109.9,56.1-163.7c0.8,0,1.6,0,2.3,0c2.7,15.8,5.6,31.5,8.1,47.3c3.6,22.4,7.2,44.8,10.1,67.3
			c0.4,3.3-2.1,8.9-4.9,10.5C1391.3,605.2,1368.1,617.3,1342.3,631z"/>
		<path d="M947.6,978.7c12.5,0,23.7,0,35.6,0c-5.5,8.6-11.2,17.6-17.6,27.7C959.1,996.4,953.4,987.6,947.6,978.7z"/>
	</g>
	<g class="st2">
		<path d="M784.5,928.6c28.6,19.5,55.4,39.3,83.8,56.3c11.2,6.7,26.1,7.3,42,11.4c-7.7,2.1-12.8,3.4-19,5.1
			c8.6,12.9,17,25.5,25.4,38.1c-0.4,0.6-0.9,1.1-1.3,1.7c-8.7-7.6-17-15.7-26.3-22.5c-3.3-2.4-9.5-3.9-13.1-2.5
			c-79.1,31.7-157.9,63.8-236.8,95.8c-1.4,0.6-2.7,1.4-5.7,3.1c31.6,5.8,61.4,11.4,91.2,16.9c20.7,3.8,41.5,7.5,62.2,11.4
			c8.4,1.6,15.3,0.2,22.9-4.6c42-26.2,84.4-51.7,128.2-75.9c-5.8,5.4-11.5,10.9-17.6,16.6c30.4,12.6,59.8,11.7,89.3,0.7
			c-5.6-5.8-11.1-11.6-16.7-17.4c0.3-0.5,0.6-1,0.9-1.5c11.8,7.1,23.7,14.1,35.4,21.3c30.3,18.6,60.4,37.5,91,55.7
			c5.7,3.4,13.4,6.4,19.5,5.3c50.8-8.7,101.5-18.3,152.2-27.7c1-0.2,2-0.7,4.6-1.6c-30.4-12.5-59.6-24.5-88.8-36.4
			c-49.6-20.2-99.3-40.2-148.7-60.7c-8.3-3.4-14-3.3-20.5,3.7c-7.1,7.7-15.7,14-25.1,20c8.5-12.9,17-25.7,26-39.3
			c-6.2-1.7-11.5-3.1-17.2-4.6c1.1-0.8,1.7-1.7,2.4-1.7c37.2-3.2,63.7-27.7,92.8-47c9.4-6.2,18.6-12.8,29.8-20.5
			c-25.9-6.5-49.6-12.5-73.3-18.4c-34.1-8.4-68.3-16.7-102.4-25c-3.3-0.8-7-1.6-10.2-0.8c-57.3,14-114.5,28.2-171.7,42.5
			C788.5,926.2,787.5,927,784.5,928.6z"/>
		<path d="M1415.9,1258.8c-36.3-44.6-72.4-89.2-109-133.6c-2.1-2.6-7.5-4.7-10.6-4c-45.2,9.9-90.2,20.3-135.7,32.7
			c14.7,4.4,29.3,9,44.1,13.3c35.6,10.4,71,21.4,106.8,30.8c20.6,5.4,37.6,16.5,54.5,28.4c16.2,11.4,32.4,22.7,48.6,34.1
			C1415,1259.9,1415.4,1259.3,1415.9,1258.8z"/>
		<path d="M771.5,1152.2c-46-10.5-90.8-20.8-135.6-30.6c-3.6-0.8-9.5,0.8-11.7,3.4c-36.8,44.6-73.2,89.6-108.6,135.9
			c20.8-14.5,42.3-28.2,62.3-43.9c17.7-13.9,38.9-17.5,59.2-23.7c42.9-12.9,86.1-25.2,129.1-37.8
			C767.8,1155.1,769.2,1153.7,771.5,1152.2z"/>
		<path d="M588.7,1226c-26.2,14.1-49.9,26.6-73.4,39.7c-2.3,1.3-4.6,5.6-4.2,8c6,38.9,12.5,77.7,21,117
			C550.6,1336.9,569.1,1283,588.7,1226z"/>
		<path d="M1342.3,1226.3c19.3,56.2,37.7,109.9,56.1,163.7c0.8,0,1.6,0,2.3,0c2.7-15.8,5.6-31.5,8.1-47.3
			c3.6-22.4,7.2-44.8,10.1-67.3c0.4-3.3-2.1-8.9-4.9-10.5C1391.3,1252.1,1368.1,1240,1342.3,1226.3z"/>
		<path d="M947.6,878.6c12.5,0,23.7,0,35.6,0c-5.5-8.6-11.2-17.6-17.6-27.7C959.1,860.9,953.4,869.6,947.6,878.6z"/>
	</g>
	<circle class="st7" cx="965.1" cy="928" r="94.6"/>
	<circle class="st8" cx="966" cy="892.7" r="27.7"/>
	<circle class="st9" cx="945" cy="900" r="22.1"/>
</g>
<g id="Layer_1_copy_2">
	<g>
		<path d="M1306.9,732.1c36.5-44.4,72.7-89,109-133.6c-0.4-0.6-0.8-1.2-1.3-1.7c-16.2,11.4-32.5,22.7-48.6,34.1
			c-16.9,11.9-33.9,23-54.5,28.4c-35.8,9.4-71.2,20.4-106.8,30.8c-14.7,4.3-29.4,8.9-44.1,13.3c45.5,12.4,90.5,22.8,135.7,32.7
			C1299.4,736.8,1304.7,734.7,1306.9,732.1z"/>
		<path d="M515.6,596.4c35.4,46.3,71.8,91.3,108.6,135.9c2.2,2.7,8.1,4.2,11.7,3.4c44.8-9.8,89.6-20.1,135.6-30.6
			c-2.3-1.5-3.7-2.9-5.3-3.4c-43-12.6-86.2-24.9-129.1-37.8c-20.4-6.1-41.5-9.8-59.2-23.7C557.9,624.6,536.4,610.9,515.6,596.4z"/>
		<path d="M515.3,591.6c23.5,13,47.2,25.6,73.4,39.7c-19.6-57-38.1-110.8-56.6-164.7c-8.5,39.3-14.9,78.1-21,117
			C510.7,586,513,590.3,515.3,591.6z"/>
		<path d="M1419.1,581.9c-2.9-22.5-6.5-44.9-10.1-67.3c-2.5-15.8-5.4-31.5-8.1-47.3c-0.8,0-1.6,0-2.3,0
			c-18.4,53.7-36.8,107.5-56.1,163.7c25.7-13.7,49-25.8,71.8-38.6C1416.9,590.8,1419.5,585.2,1419.1,581.9z"/>
		<path d="M1029.3,858.5c3.3-0.9,6.6-1.8,10.2-2.7c-9-13.6-17.5-26.5-26-39.3c9.4,6,18,12.3,25.1,20c6.4,6.9,12.2,7.1,20.5,3.7
			c49.5-20.5,99.1-40.5,148.7-60.7c29.2-11.9,58.4-23.9,88.8-36.4c-2.6-0.9-3.6-1.4-4.6-1.6c-50.7-9.4-101.4-19.1-152.2-27.7
			c-6.1-1-13.8,2-19.5,5.3c-30.6,18.2-60.7,37.1-91,55.7c-11.7,7.2-23.6,14.2-35.4,21.3c-0.3-0.5-0.6-1-0.9-1.5
			c5.6-5.8,11.1-11.6,16.7-17.4c-29.5-11-58.9-11.9-89.3,0.7c6.1,5.7,11.8,11.1,17.6,16.6c-43.7-24.2-86.2-49.6-128.2-75.9
			c-7.6-4.8-14.5-6.2-22.9-4.6c-20.7,4-41.5,7.6-62.2,11.4c-29.8,5.5-59.6,11-91.2,16.9c3,1.7,4.3,2.5,5.7,3.1
			c78.9,32.1,157.8,64.2,236.8,95.8c3.6,1.4,9.8-0.1,13.1-2.5c9.2-6.9,17.6-14.9,26.3-22.5c0.4,0.6,0.9,1.1,1.3,1.7
			c-8.4,12.6-16.8,25.2-25.4,38.1c3.3,0.9,6.4,1.7,9.6,2.6c16.9-15.6,39.4-25.1,64.2-25.1C989.9,833.4,1012.5,842.9,1029.3,858.5z"
			/>
		<path d="M1032.8,994.1c33.1-5.7,57.7-28,84.6-45.9c8.2-5.4,16.2-11.1,25.5-17.5c1.4-0.4,2.8-0.7,4.2-1.1c-0.5-0.3-0.9-0.6-1.3-0.9
			c0.5-0.3,0.9-0.6,1.4-0.9c-1.4-0.4-2.8-0.7-4.3-1.1c-9.3-6.5-17.3-12.1-25.5-17.5c-26.5-17.6-50.8-39.5-83.2-45.6
			c15.8,16.9,25.4,39.6,25.4,64.5C1059.7,953.7,1049.4,977,1032.8,994.1z"/>
		<path d="M1296.6,1114.2c-30.4-12.5-59.6-24.5-88.8-36.4c-49.6-20.2-99.3-40.2-148.7-60.7c-8.3-3.4-14-3.3-20.5,3.7
			c-7.1,7.7-15.7,14-25.1,20c8.5-12.9,17-25.7,26-39.3c-4-1.1-7.7-2.1-11.3-3c-16.7,15-38.9,24.2-63.1,24.2
			c-24.2,0-46.3-9.1-63.1-24.1c-3.7,1-7,1.9-10.7,2.9c8.6,12.9,17,25.5,25.4,38.1c-0.4,0.6-0.9,1.1-1.3,1.7
			c-8.7-7.6-17-15.6-26.3-22.5c-3.3-2.4-9.5-3.9-13.1-2.5c-79.1,31.7-157.9,63.8-236.8,95.8c-1.4,0.6-2.7,1.4-5.7,3.1
			c31.6,5.8,61.4,11.4,91.2,16.9c20.7,3.8,41.5,7.5,62.2,11.4c8.4,1.6,15.3,0.2,22.9-4.6c42-26.2,84.4-51.7,128.2-75.9
			c-5.8,5.4-11.5,10.9-17.6,16.6c30.4,12.6,59.8,11.7,89.3,0.7c-5.6-5.8-11.1-11.6-16.7-17.4c0.3-0.5,0.6-1,0.9-1.5
			c11.8,7.1,23.7,14.1,35.4,21.3c30.3,18.6,60.4,37.5,91,55.7c5.7,3.4,13.4,6.4,19.5,5.3c50.8-8.7,101.5-18.3,152.2-27.7
			C1293.1,1115.6,1294.1,1115.1,1296.6,1114.2z"/>
		<path d="M895.2,864.2c-10.1,1.9-19.4,3.7-27,8.2c-28.2,16.9-54.7,36.5-83.1,55.8c-0.2,0.1-0.4,0.2-0.7,0.4c0,0,0.1,0,0.1,0.1
			c0,0-0.1,0-0.1,0.1c0.3,0.1,0.5,0.3,0.7,0.4c28.3,19.3,54.9,38.9,83.1,55.8c7.9,4.8,17.7,6.5,28.4,8.5c-16.2-17-26.2-40-26.2-65.4
			C870.5,903.4,879.9,881,895.2,864.2z"/>
		<path d="M1414.6,1260.5c0.4-0.6,0.8-1.2,1.3-1.7c-36.3-44.6-72.4-89.2-109-133.6c-2.1-2.6-7.5-4.7-10.6-4
			c-45.2,9.9-90.2,20.3-135.7,32.7c14.7,4.4,29.3,9,44.1,13.3c35.6,10.4,71,21.4,106.8,30.8c20.6,5.4,37.6,16.5,54.5,28.4
			C1382.1,1237.8,1398.4,1249.1,1414.6,1260.5z"/>
		<path d="M624.2,1125c-36.8,44.6-73.2,89.6-108.6,135.9c20.8-14.5,42.3-28.2,62.3-43.9c17.7-13.9,38.9-17.5,59.2-23.7
			c42.9-12.9,86.1-25.2,129.1-37.8c1.6-0.5,3-1.8,5.3-3.4c-46-10.5-90.8-20.8-135.6-30.6C632.3,1120.8,626.4,1122.4,624.2,1125z"/>
		<path d="M511.1,1273.8c6,38.9,12.5,77.7,21,117c18.5-53.9,37.1-107.7,56.6-164.7c-26.2,14.1-49.9,26.6-73.4,39.7
			C513,1267,510.7,1271.3,511.1,1273.8z"/>
		<path d="M1414.1,1264.9c-22.8-12.8-46.1-24.9-71.8-38.6c19.3,56.2,37.7,109.9,56.1,163.7c0.8,0,1.6,0,2.3,0
			c2.7-15.8,5.6-31.5,8.1-47.3c3.6-22.4,7.2-44.8,10.1-67.3C1419.5,1272.1,1417,1266.5,1414.1,1264.9z"/>
		<path class="st10" d="M1024.7,862.1c3.3,0.3,6.5,0.7,9.6,1.3c-1.6-1.7-3.2-3.3-4.9-4.9c-2.3,0.6-4.7,1.2-7,1.9
			C1023.4,861.3,1024,862.1,1024.7,862.1z"/>
		<path class="st10" d="M896.7,993.4c1.7,1.8,3.5,3.5,5.3,5.1c2.5-0.7,5.2-1.4,8.2-2.2C905.6,995.1,901.1,994.2,896.7,993.4z"/>
		<path class="st10" d="M900.9,858.5c-2,1.8-3.9,3.7-5.7,5.7c4.8-0.9,9.9-1.9,15-3.2C906.7,860,903.7,859.2,900.9,858.5z"/>
		<path class="st10" d="M1022.3,996.9c2,0.5,4,1.1,5.9,1.6c1.6-1.4,3.1-2.9,4.6-4.4c-2.7,0.5-5.4,0.8-8.1,1.1
			C1024,995.2,1023.4,996,1022.3,996.9z"/>
	</g>
	<path class="st0" d="M1028.2,998.5c-2-0.5-3.9-1.1-5.9-1.6c1.1-0.8,1.7-1.7,2.4-1.7c2.8-0.2,5.5-0.6,8.1-1.1
		c16.7-17.1,26.9-40.4,26.9-66.1c0-24.9-9.7-47.6-25.4-64.5c-3.1-0.6-6.3-1-9.6-1.3c-0.6-0.1-1.2-0.9-2.4-1.7c2.4-0.6,4.7-1.3,7-1.9
		c-16.9-15.6-39.4-25.2-64.2-25.2c-24.8,0-47.3,9.5-64.2,25.1c2.8,0.8,5.8,1.6,9.3,2.5c-5.1,1.3-10.2,2.3-15,3.2
		c-15.4,16.8-24.8,39.2-24.8,63.8c0,25.4,10,48.4,26.2,65.4c4.4,0.8,8.9,1.7,13.6,2.9c-3.1,0.8-5.7,1.5-8.2,2.2
		c16.7,15,38.8,24.1,63.1,24.1C989.4,1022.6,1011.5,1013.5,1028.2,998.5z"/>
	<g>
		<path d="M1024.5,986c14.6-15,23.6-35.4,23.6-58c0-21.9-8.5-41.8-22.3-56.6c-2.7-0.5-5.5-0.9-8.4-1.2c-0.6,0-1.1-0.8-2.1-1.5
			c2.1-0.6,4.1-1.1,6.2-1.7c-14.8-13.7-34.6-22.1-56.4-22.1c-21.7,0-41.5,8.4-56.3,22c2.5,0.7,5.1,1.4,8.2,2.2
			c-4.5,1.2-8.9,2-13.2,2.8c-13.5,14.8-21.7,34.4-21.7,56c0,22.3,8.8,42.5,23,57.4c3.8,0.7,7.8,1.5,11.9,2.6c-2.7,0.7-5,1.4-7.2,1.9
			c14.7,13.1,34.1,21.1,55.3,21.1c21.3,0,40.7-8,55.4-21.2c-1.7-0.5-3.5-0.9-5.2-1.4c1-0.7,1.5-1.5,2.1-1.5
			C1019.8,986.7,1022.2,986.4,1024.5,986z M945,922.1c-12.2,0-22.1-9.9-22.1-22.1c0-12.2,9.9-22.1,22.1-22.1s22.1,9.9,22.1,22.1
			C967.1,912.2,957.2,922.1,945,922.1z"/>
		<circle class="st11" cx="945" cy="900" r="22.1"/>
	</g>
	<circle class="st10" cx="965.1" cy="928" r="94.6"/>
	<path class="st12" d="M1021,1160.3c0.5-2.4,1.1-4.8,1.6-7.2c0.9,0.5,2.3,0.7,2.7,1.4c1.3,2.8,0.3,5-2.2,6.4
		C1022.4,1160.7,1021.7,1160.5,1021,1160.3z"/>
	<circle class="st13" cx="966" cy="892.7" r="27.7"/>
</g>
<g id="Layer_2">
	<rect x="662" y="1260.9" class="st14" width="608" height="372"/>
	<text transform="matrix(1 0 0 1 669.6003 1351.4058)" class="st15 st16">HAWK EYE</text>
</g>
</svg>
